{"asset":{"version":"2.0","generator":"Blockbench 4.4.2 glTF exporter"},"scenes":[{"nodes":[8],"name":"blockbench_export"}],"scene":0,"nodes":[{"name":"cube","mesh":0},{"rotation":[0.18023995550173683,-0.3753302775178653,-0.07465783405034256,0.9061274463528878],"translation":[5.920876169735483,1.4172288990108344,-0.9424544098693817],"name":"cube","mesh":1},{"rotation":[0.18023995550173683,-0.3753302775178653,-0.07465783405034256,0.9061274463528878],"translation":[-11.152308838428013,1.5659476444637521,5.792629983205707],"name":"cube","mesh":2},{"rotation":[0.18023995550173683,-0.3753302775178653,-0.07465783405034256,0.9061274463528878],"translation":[16.075574926389976,2.912438092576099,7.043537589718268],"name":"cube","mesh":3},{"rotation":[0.18023995550173683,-0.3753302775178653,-0.07465783405034256,0.9061274463528878],"translation":[0.3997452249464677,1.575449930712503,24.071075494782463],"name":"cube","mesh":4},{"rotation":[-0.1802399555017368,-0.31818964514320885,-0.212607523691814,0.9061274463528878],"translation":[3.899745224946468,-0.48705006928749706,24.071075494782463],"name":"cube","mesh":5},{"rotation":[0.10838637566236914,-0.8154931568489172,-0.16221167441072828,0.5448951067758189],"translation":[-1.652308838428013,0.8784476444637521,5.792629983205707],"name":"cube","mesh":6},{"rotation":[0.02288732695772122,-0.41573480615127256,0.27778511650980114,0.8657229177194804],"translation":[10.222691161571987,0.06594764446375123,11.980129983205707],"name":"cube","mesh":7},{"children":[0,1,2,3,4,5,6,7]}],"bufferViews":[{"buffer":0,"byteOffset":0,"byteLength":288,"target":34962,"byteStride":12},{"buffer":0,"byteOffset":288,"byteLength":288,"target":34962,"byteStride":12},{"buffer":0,"byteOffset":576,"byteLength":192,"target":34962,"byteStride":8},{"buffer":0,"byteOffset":768,"byteLength":12,"target":34963},{"buffer":0,"byteOffset":780,"byteLength":288,"target":34962,"byteStride":12},{"buffer":0,"byteOffset":1068,"byteLength":288,"target":34962,"byteStride":12},{"buffer":0,"byteOffset":1356,"byteLength":192,"target":34962,"byteStride":8},{"buffer":0,"byteOffset":1548,"byteLength":72,"target":34963},{"buffer":0,"byteOffset":1620,"byteLength":288,"target":34962,"byteStride":12},{"buffer":0,"byteOffset":1908,"byteLength":288,"target":34962,"byteStride":12},{"buffer":0,"byteOffset":2196,"byteLength":192,"target":34962,"byteStride":8},{"buffer":0,"byteOffset":2388,"byteLength":72,"target":34963},{"buffer":0,"byteOffset":2460,"byteLength":288,"target":34962,"byteStride":12},{"buffer":0,"byteOffset":2748,"byteLength":288,"target":34962,"byteStride":12},{"buffer":0,"byteOffset":3036,"byteLength":192,"target":34962,"byteStride":8},{"buffer":0,"byteOffset":3228,"byteLength":72,"target":34963},{"buffer":0,"byteOffset":3300,"byteLength":288,"target":34962,"byteStride":12},{"buffer":0,"byteOffset":3588,"byteLength":288,"target":34962,"byteStride":12},{"buffer":0,"byteOffset":3876,"byteLength":192,"target":34962,"byteStride":8},{"buffer":0,"byteOffset":4068,"byteLength":72,"target":34963},{"buffer":0,"byteOffset":4140,"byteLength":288,"target":34962,"byteStride":12},{"buffer":0,"byteOffset":4428,"byteLength":288,"target":34962,"byteStride":12},{"buffer":0,"byteOffset":4716,"byteLength":192,"target":34962,"byteStride":8},{"buffer":0,"byteOffset":4908,"byteLength":72,"target":34963},{"buffer":0,"byteOffset":4980,"byteLength":288,"target":34962,"byteStride":12},{"buffer":0,"byteOffset":5268,"byteLength":288,"target":34962,"byteStride":12},{"buffer":0,"byteOffset":5556,"byteLength":192,"target":34962,"byteStride":8},{"buffer":0,"byteOffset":5748,"byteLength":72,"target":34963},{"buffer":0,"byteOffset":5820,"byteLength":288,"target":34962,"byteStride":12},{"buffer":0,"byteOffset":6108,"byteLength":288,"target":34962,"byteStride":12},{"buffer":0,"byteOffset":6396,"byteLength":192,"target":34962,"byteStride":8},{"buffer":0,"byteOffset":6588,"byteLength":72,"target":34963}],"buffers":[{"byteLength":6660,"uri":"data:application/octet-stream;base64,"}],"accessors":[{"bufferView":0,"componentType":5126,"count":24,"max":[7.75,0.0000625000029685907,7.75],"min":[-7.75,0,-7.75],"type":"VEC3"},{"bufferView":1,"componentType":5126,"count":24,"max":[1,1,1],"min":[-1,-1,-1],"type":"VEC3"},{"bufferView":2,"componentType":5126,"count":24,"max":[0.5,1],"min":[0,0.4140625],"type":"VEC2"},{"bufferView":3,"componentType":5123,"count":6,"max":[11],"min":[8],"type":"SCALAR"},{"bufferView":4,"componentType":5126,"count":24,"max":[0.46875,0.46875,0.46875],"min":[-0.46875,-0.46875,-0.46875],"type":"VEC3"},{"bufferView":5,"componentType":5126,"count":24,"max":[1,1,1],"min":[-1,-1,-1],"type":"VEC3"},{"bufferView":6,"componentType":5126,"count":24,"max":[0.05859375,1],"min":[0,0.94140625],"type":"VEC2"},{"bufferView":7,"componentType":5123,"count":36,"max":[23],"min":[0],"type":"SCALAR"},{"bufferView":8,"componentType":5126,"count":24,"max":[0.46875,0.46875,0.46875],"min":[-0.46875,-0.46875,-0.46875],"type":"VEC3"},{"bufferView":9,"componentType":5126,"count":24,"max":[1,1,1],"min":[-1,-1,-1],"type":"VEC3"},{"bufferView":10,"componentType":5126,"count":24,"max":[0.05859375,1],"min":[0,0.94140625],"type":"VEC2"},{"bufferView":11,"componentType":5123,"count":36,"max":[23],"min":[0],"type":"SCALAR"},{"bufferView":12,"componentType":5126,"count":24,"max":[0.46875,0.46875,0.46875],"min":[-0.46875,-0.46875,-0.46875],"type":"VEC3"},{"bufferView":13,"componentType":5126,"count":24,"max":[1,1,1],"min":[-1,-1,-1],"type":"VEC3"},{"bufferView":14,"componentType":5126,"count":24,"max":[0.05859375,1],"min":[0,0.94140625],"type":"VEC2"},{"bufferView":15,"componentType":5123,"count":36,"max":[23],"min":[0],"type":"SCALAR"},{"bufferView":16,"componentType":5126,"count":24,"max":[0.46875,0.46875,0.46875],"min":[-0.46875,-0.46875,-0.46875],"type":"VEC3"},{"bufferView":17,"componentType":5126,"count":24,"max":[1,1,1],"min":[-1,-1,-1],"type":"VEC3"},{"bufferView":18,"componentType":5126,"count":24,"max":[0.05859375,1],"min":[0,0.94140625],"type":"VEC2"},{"bufferView":19,"componentType":5123,"count":36,"max":[23],"min":[0],"type":"SCALAR"},{"bufferView":20,"componentType":5126,"count":24,"max":[0.46875,0.46875,0.46875],"min":[-0.46875,-0.46875,-0.46875],"type":"VEC3"},{"bufferView":21,"componentType":5126,"count":24,"max":[1,1,1],"min":[-1,-1,-1],"type":"VEC3"},{"bufferView":22,"componentType":5126,"count":24,"max":[0.05859375,1],"min":[0,0.94140625],"type":"VEC2"},{"bufferView":23,"componentType":5123,"count":36,"max":[23],"min":[0],"type":"SCALAR"},{"bufferView":24,"componentType":5126,"count":24,"max":[0.46875,0.46875,0.46875],"min":[-0.46875,-0.46875,-0.46875],"type":"VEC3"},{"bufferView":25,"componentType":5126,"count":24,"max":[1,1,1],"min":[-1,-1,-1],"type":"VEC3"},{"bufferView":26,"componentType":5126,"count":24,"max":[0.05859375,1],"min":[0,0.94140625],"type":"VEC2"},{"bufferView":27,"componentType":5123,"count":36,"max":[23],"min":[0],"type":"SCALAR"},{"bufferView":28,"componentType":5126,"count":24,"max":[0.46875,0.46875,0.46875],"min":[-0.46875,-0.46875,-0.46875],"type":"VEC3"},{"bufferView":29,"componentType":5126,"count":24,"max":[1,1,1],"min":[-1,-1,-1],"type":"VEC3"},{"bufferView":30,"componentType":5126,"count":24,"max":[0.05859375,1],"min":[0,0.94140625],"type":"VEC2"},{"bufferView":31,"componentType":5123,"count":36,"max":[23],"min":[0],"type":"SCALAR"}],"materials":[{"pbrMetallicRoughness":{"metallicFactor":0,"roughnessFactor":1,"baseColorTexture":{"index":0}},"alphaMode":"MASK","alphaCutoff":0.05,"doubleSided":true}],"textures":[{"sampler":0,"source":0,"name":"bg.png"}],"samplers":[{"magFilter":9728,"minFilter":9728,"wrapS":33071,"wrapT":33071}],"images":[{"mimeType":"image/png","uri":"data:image/png;base64,"}],"meshes":[{"primitives":[{"mode":4,"attributes":{"POSITION":0,"NORMAL":1,"TEXCOORD_0":2},"indices":3,"material":0}]},{"primitives":[{"mode":4,"attributes":{"POSITION":4,"NORMAL":5,"TEXCOORD_0":6},"indices":7,"material":0}]},{"primitives":[{"mode":4,"attributes":{"POSITION":8,"NORMAL":9,"TEXCOORD_0":10},"indices":11,"material":0}]},{"primitives":[{"mode":4,"attributes":{"POSITION":12,"NORMAL":13,"TEXCOORD_0":14},"indices":15,"material":0}]},{"primitives":[{"mode":4,"attributes":{"POSITION":16,"NORMAL":17,"TEXCOORD_0":18},"indices":19,"material":0}]},{"primitives":[{"mode":4,"attributes":{"POSITION":20,"NORMAL":21,"TEXCOORD_0":22},"indices":23,"material":0}]},{"primitives":[{"mode":4,"attributes":{"POSITION":24,"NORMAL":25,"TEXCOORD_0":26},"indices":27,"material":0}]},{"primitives":[{"mode":4,"attributes":{"POSITION":28,"NORMAL":29,"TEXCOORD_0":30},"indices":31,"material":0}]}]}