<svg width="100" height="100" viewBox="0 0 100 100" fill="none" xmlns="http://www.w3.org/2000/svg">
<path fill-rule="evenodd" clip-rule="evenodd" d="M50 0C22.3858 0 0 22.3858 0 50C0 77.6142 22.3858 100 50 100C77.6142 100 100 77.6142 100 50C100 22.3858 77.6142 0 50 0ZM33.9263 45.6068C31.137 43.9964 27.5 45.9011 27.5 49.1219C27.5 50.5872 28.3055 51.9431 29.6075 52.6154C45.8491 61.0014 55.4555 60.8537 70.5453 52.5967C71.7585 51.9329 72.5 50.6473 72.5 49.2643C72.5 46.0745 68.8293 44.2496 66.113 45.922C55.2532 52.6084 46.6367 52.9451 33.9263 45.6068ZM92 50C92 54.1421 88.6421 57.5 84.5 57.5C80.3579 57.5 77 54.1421 77 50C77 45.8579 80.3579 42.5 84.5 42.5C88.6421 42.5 92 45.8579 92 50ZM15.5 57.5C19.6421 57.5 23 54.1421 23 50C23 45.8579 19.6421 42.5 15.5 42.5C11.3579 42.5 8 45.8579 8 50C8 54.1421 11.3579 57.5 15.5 57.5Z" fill="#D9D9D9"/>
</svg>
