<svg width="300" height="300" viewBox="0 0 300 300" fill="none" xmlns="http://www.w3.org/2000/svg">
<g clip-path="url(#clip0_1_2)">
<path fill-rule="evenodd" clip-rule="evenodd" d="M100 50C72.3858 50 50 72.3858 50 100V200C50 227.614 72.3858 250 100 250H200C227.614 250 250 227.614 250 200V100C250 72.3858 227.614 50 200 50H100ZM117.853 141.214C112.274 137.993 105 141.802 105 148.244C105 151.174 106.611 153.886 109.215 155.231C141.698 172.003 160.911 171.707 191.091 155.193C193.517 153.866 195 151.295 195 148.529C195 142.149 187.659 138.499 182.226 141.844C160.506 155.217 143.273 155.89 117.853 141.214ZM234 150C234 158.284 227.284 165 219 165C210.716 165 204 158.284 204 150C204 141.716 210.716 135 219 135C227.284 135 234 141.716 234 150ZM81 165C89.2843 165 96 158.284 96 150C96 141.716 89.2843 135 81 135C72.7157 135 66 141.716 66 150C66 158.284 72.7157 165 81 165Z" fill="#D9D9D9"/>
<rect x="7.5" y="7.5" width="285" height="285" stroke="white" stroke-width="15" stroke-linecap="round" stroke-dasharray="50 50"/>
</g>
<defs>
<clipPath id="clip0_1_2">
<rect width="300" height="300" fill="white"/>
</clipPath>
</defs>
</svg>
