<svg width="600" height="600" viewBox="0 0 600 600" fill="none" xmlns="http://www.w3.org/2000/svg">
<rect width="600" height="600" rx="170" fill="black"/>
<g filter="url(#filter0_i_4_58)">
<path d="M75 245C75 151.112 151.112 75 245 75H355C448.888 75 525 151.112 525 245V355C525 448.888 448.888 525 355 525H245C151.112 525 75 448.888 75 355V245Z" fill="url(#paint0_linear_4_58)"/>
</g>
<g filter="url(#filter1_b_4_58)">
<path d="M64 243.444C64 144.34 144.34 64 243.444 64H359.556C458.66 64 539 144.34 539 243.444V359.556C539 458.66 458.66 539 359.556 539H243.444C144.34 539 64 458.66 64 359.556V243.444Z" fill="url(#paint1_linear_4_58)" fill-opacity="0.45"/>
</g>
<g filter="url(#filter2_d_4_58)">
<path fill-rule="evenodd" clip-rule="evenodd" d="M302 126.3C285.365 126.3 271.88 139.785 271.88 156.42V271.88H156.42C139.785 271.88 126.3 285.365 126.3 302C126.3 318.635 139.785 332.12 156.42 332.12H271.88V447.58C271.88 464.215 285.365 477.7 302 477.7C318.635 477.7 332.12 464.215 332.12 447.58V332.12H447.58C464.215 332.12 477.7 318.635 477.7 302C477.7 285.365 464.215 271.88 447.58 271.88H332.12V156.42C332.12 139.785 318.635 126.3 302 126.3Z" fill="black"/>
</g>
<defs>
<filter id="filter0_i_4_58" x="65" y="75" width="460" height="460" filterUnits="userSpaceOnUse" color-interpolation-filters="sRGB">
<feFlood flood-opacity="0" result="BackgroundImageFix"/>
<feBlend mode="normal" in="SourceGraphic" in2="BackgroundImageFix" result="shape"/>
<feColorMatrix in="SourceAlpha" type="matrix" values="0 0 0 0 0 0 0 0 0 0 0 0 0 0 0 0 0 0 127 0" result="hardAlpha"/>
<feOffset dx="-10" dy="10"/>
<feGaussianBlur stdDeviation="12.5"/>
<feComposite in2="hardAlpha" operator="arithmetic" k2="-1" k3="1"/>
<feColorMatrix type="matrix" values="0 0 0 0 0 0 0 0 0 0 0 0 0 0 0 0 0 0 0.5 0"/>
<feBlend mode="normal" in2="shape" result="effect1_innerShadow_4_58"/>
</filter>
<filter id="filter1_b_4_58" x="59" y="59" width="485" height="485" filterUnits="userSpaceOnUse" color-interpolation-filters="sRGB">
<feFlood flood-opacity="0" result="BackgroundImageFix"/>
<feGaussianBlur in="BackgroundImageFix" stdDeviation="2.5"/>
<feComposite in2="SourceAlpha" operator="in" result="effect1_backgroundBlur_4_58"/>
<feBlend mode="normal" in="SourceGraphic" in2="effect1_backgroundBlur_4_58" result="shape"/>
</filter>
<filter id="filter2_d_4_58" x="101.3" y="111.3" width="401.4" height="401.4" filterUnits="userSpaceOnUse" color-interpolation-filters="sRGB">
<feFlood flood-opacity="0" result="BackgroundImageFix"/>
<feColorMatrix in="SourceAlpha" type="matrix" values="0 0 0 0 0 0 0 0 0 0 0 0 0 0 0 0 0 0 127 0" result="hardAlpha"/>
<feOffset dy="10"/>
<feGaussianBlur stdDeviation="12.5"/>
<feComposite in2="hardAlpha" operator="out"/>
<feColorMatrix type="matrix" values="0 0 0 0 0 0 0 0 0 0 0 0 0 0 0 0 0 0 0.5 0"/>
<feBlend mode="normal" in2="BackgroundImageFix" result="effect1_dropShadow_4_58"/>
<feBlend mode="normal" in="SourceGraphic" in2="effect1_dropShadow_4_58" result="shape"/>
</filter>
<linearGradient id="paint0_linear_4_58" x1="472.732" y1="106.419" x2="104.858" y2="469.275" gradientUnits="userSpaceOnUse">
<stop stop-color="#EB00FF"/>
<stop offset="0.604416" stop-color="#9700BE"/>
<stop offset="1" stop-color="#3C0077"/>
</linearGradient>
<linearGradient id="paint1_linear_4_58" x1="301.5" y1="64" x2="301.5" y2="539" gradientUnits="userSpaceOnUse">
<stop stop-color="white"/>
<stop offset="1" stop-color="#767676"/>
</linearGradient>
</defs>
</svg>
