<svg width="300" height="300" viewBox="0 0 300 300" fill="none" xmlns="http://www.w3.org/2000/svg">
<path fill-rule="evenodd" clip-rule="evenodd" d="M150 100C122.386 100 100 122.386 100 150C100 177.614 122.386 200 150 200C177.614 200 200 177.614 200 150C200 122.386 177.614 100 150 100ZM133.926 145.607C131.137 143.996 127.5 145.901 127.5 149.122C127.5 150.587 128.306 151.943 129.607 152.615C145.849 161.001 155.455 160.854 170.545 152.597C171.759 151.933 172.5 150.647 172.5 149.264C172.5 146.074 168.829 144.25 166.113 145.922C155.253 152.608 146.637 152.945 133.926 145.607ZM192 150C192 154.142 188.642 157.5 184.5 157.5C180.358 157.5 177 154.142 177 150C177 145.858 180.358 142.5 184.5 142.5C188.642 142.5 192 145.858 192 150ZM115.5 157.5C119.642 157.5 123 154.142 123 150C123 145.858 119.642 142.5 115.5 142.5C111.358 142.5 108 145.858 108 150C108 154.142 111.358 157.5 115.5 157.5Z" fill="#D9D9D9"/>
</svg>
