<svg width="512" height="512" viewBox="0 0 512 512" fill="none" xmlns="http://www.w3.org/2000/svg">
<g clip-path="url(#clip0_387_308)">
<rect width="512" height="512" rx="160" fill="url(#paint0_angular_387_308)"/>
<g filter="url(#filter0_b_387_308)">
<rect width="512" height="512" fill="black" fill-opacity="0.25"/>
</g>
<path d="M68 210C68 131.576 131.576 68 210 68H302C380.424 68 444 131.576 444 210V302C444 380.424 380.424 444 302 444H210C131.576 444 68 380.424 68 302V210Z" fill="#A982DB"/>
<path fill-rule="evenodd" clip-rule="evenodd" d="M256.5 398C270.564 398 281.966 386.599 281.966 372.534V280.966H373.534C387.599 280.966 399 269.564 399 255.5C399 241.436 387.599 230.034 373.534 230.034H281.966V138.466C281.966 124.401 270.564 113 256.5 113C242.436 113 231.034 124.401 231.034 138.466V230.034H139.466C125.401 230.034 114 241.436 114 255.5C114 269.564 125.401 280.966 139.466 280.966H231.034V372.534C231.034 386.599 242.436 398 256.5 398Z" fill="black" fill-opacity="0.65"/>
</g>
<defs>
<filter id="filter0_b_387_308" x="-25" y="-25" width="562" height="562" filterUnits="userSpaceOnUse" color-interpolation-filters="sRGB">
<feFlood flood-opacity="0" result="BackgroundImageFix"/>
<feGaussianBlur in="BackgroundImageFix" stdDeviation="12.5"/>
<feComposite in2="SourceAlpha" operator="in" result="effect1_backgroundBlur_387_308"/>
<feBlend mode="normal" in="SourceGraphic" in2="effect1_backgroundBlur_387_308" result="shape"/>
</filter>
<radialGradient id="paint0_angular_387_308" cx="0" cy="0" r="1" gradientUnits="userSpaceOnUse" gradientTransform="translate(256 256) rotate(90) scale(256)">
<stop offset="0.125" stop-color="#2C2A4E"/>
<stop offset="0.53125" stop-color="#2B1E3C"/>
<stop offset="0.84375" stop-color="#4F3077"/>
</radialGradient>
<clipPath id="clip0_387_308">
<rect width="512" height="512" rx="160" fill="white"/>
</clipPath>
</defs>
</svg>
