{"asset":{"version":"2.0","generator":"Blockbench 4.4.1 glTF exporter"},"scenes":[{"nodes":[3],"name":"blockbench_export"}],"scene":0,"nodes":[{"name":"cube","mesh":0},{"rotation":[0,-0.7071067811865475,0,0.7071067811865476],"translation":[-0.7812499999999997,0.53125,2.0000000000000004],"name":"cube","mesh":1},{"translation":[2,0.53125,0.03125],"name":"cube","mesh":2},{"children":[0,1,2]}],"bufferViews":[{"buffer":0,"byteOffset":0,"byteLength":288,"target":34962,"byteStride":12},{"buffer":0,"byteOffset":288,"byteLength":288,"target":34962,"byteStride":12},{"buffer":0,"byteOffset":576,"byteLength":192,"target":34962,"byteStride":8},{"buffer":0,"byteOffset":768,"byteLength":12,"target":34963},{"buffer":0,"byteOffset":780,"byteLength":288,"target":34962,"byteStride":12},{"buffer":0,"byteOffset":1068,"byteLength":288,"target":34962,"byteStride":12},{"buffer":0,"byteOffset":1356,"byteLength":192,"target":34962,"byteStride":8},{"buffer":0,"byteOffset":1548,"byteLength":12,"target":34963},{"buffer":0,"byteOffset":1560,"byteLength":288,"target":34962,"byteStride":12},{"buffer":0,"byteOffset":1848,"byteLength":288,"target":34962,"byteStride":12},{"buffer":0,"byteOffset":2136,"byteLength":192,"target":34962,"byteStride":8},{"buffer":0,"byteOffset":2328,"byteLength":12,"target":34963}],"buffers":[{"byteLength":2340,"uri":"data:application/octet-stream;base64,"}],"accessors":[{"bufferView":0,"componentType":5126,"count":24,"max":[4,0.0000625000029685907,4],"min":[-4,0,-4],"type":"VEC3"},{"bufferView":1,"componentType":5126,"count":24,"max":[1,1,1],"min":[-1,-1,-1],"type":"VEC3"},{"bufferView":2,"componentType":5126,"count":24,"max":[2.34375,1],"min":[0,0.4140625],"type":"VEC2"},{"bufferView":3,"componentType":5123,"count":6,"max":[11],"min":[8],"type":"SCALAR"},{"bufferView":4,"componentType":5126,"count":24,"max":[0.0000625000029685907,0.53125,1.46875],"min":[-2.220446049250313e-16,-0.53125,-1.46875],"type":"VEC3"},{"bufferView":5,"componentType":5126,"count":24,"max":[1,1,1],"min":[-1,-1,-1],"type":"VEC3"},{"bufferView":6,"componentType":5126,"count":24,"max":[0.18359375,1],"min":[0,0.93359375],"type":"VEC2"},{"bufferView":7,"componentType":5123,"count":6,"max":[7],"min":[4],"type":"SCALAR"},{"bufferView":8,"componentType":5126,"count":24,"max":[0.0000625000029685907,0.53125,1.46875],"min":[0,-0.53125,-1.46875],"type":"VEC3"},{"bufferView":9,"componentType":5126,"count":24,"max":[1,1,1],"min":[-1,-1,-1],"type":"VEC3"},{"bufferView":10,"componentType":5126,"count":24,"max":[0.498077392578125,1],"min":[0,0.93359375],"type":"VEC2"},{"bufferView":11,"componentType":5123,"count":6,"max":[7],"min":[4],"type":"SCALAR"}],"materials":[{"pbrMetallicRoughness":{"metallicFactor":0,"roughnessFactor":1,"baseColorTexture":{"index":0}},"alphaMode":"MASK","alphaCutoff":0.05,"doubleSided":true}],"textures":[{"sampler":0,"source":0,"name":"bg.png"}],"samplers":[{"magFilter":9728,"minFilter":9728,"wrapS":33071,"wrapT":33071}],"images":[{"mimeType":"image/png","uri":"data:image/png;base64,"}],"meshes":[{"primitives":[{"mode":4,"attributes":{"POSITION":0,"NORMAL":1,"TEXCOORD_0":2},"indices":3,"material":0}]},{"primitives":[{"mode":4,"attributes":{"POSITION":4,"NORMAL":5,"TEXCOORD_0":6},"indices":7,"material":0}]},{"primitives":[{"mode":4,"attributes":{"POSITION":8,"NORMAL":9,"TEXCOORD_0":10},"indices":11,"material":0}]}]}